<?xml version="1.0" encoding="UTF-8"?>
<svg width="50px" height="50px" viewBox="0 0 50 50" version="1.1" xmlns="http://www.w3.org/2000/svg" xmlns:xlink="http://www.w3.org/1999/xlink">
  <g fill="none" fill-rule="evenodd">
    <path d="M25,18.3333333 C28.676,18.3333333 31.6666667,21.324 31.6666667,25 C31.6666667,28.676 28.676,31.6666667 25,31.6666667 C21.324,31.6666667 18.3333333,28.676 18.3333333,25 C18.3333333,21.324 21.324,18.3333333 25,18.3333333 Z M25,17 C20.582,17 17,20.582 17,25 C17,29.418 20.582,33 25,33 C29.418,33 33,29.418 33,25 C33,20.582 29.418,17 25,17 Z M25.6666667,29 L24.3333333,29 L24.3333333,23.6666667 L25.6666667,23.6666667 L25.6666667,29 Z M25,20.8333333 C25.46,20.8333333 25.8333333,21.2066667 25.8333333,21.6666667 C25.8333333,22.1266667 25.46,22.5 25,22.5 C24.54,22.5 24.1666667,22.1266667 24.1666667,21.6666667 C24.1666667,21.2066667 24.54,20.8333333 25,20.8333333 Z" fill="#D3B7FF" fill-rule="nonzero"></path>
  </g>
</svg>
