<?xml version="1.0" encoding="UTF-8"?>
<svg width="50px" height="50px" viewBox="0 0 50 50" version="1.1" xmlns="http://www.w3.org/2000/svg" xmlns:xlink="http://www.w3.org/1999/xlink">
  <g fill="none" fill-rule="evenodd">
    <path d="M33,23.542 C31.568,23.0313333 31.1826667,23.0073333 30.982,22.5226667 C30.78,22.0366667 31.0373333,21.7433333 31.688,20.374 L29.626,18.312 C28.2753333,18.954 27.9673333,19.2213333 27.4766667,19.018 C26.992,18.8166667 26.9646667,18.4253333 26.4586667,17 L23.542,17 C23.0326667,18.4293333 23.0086667,18.8166667 22.5226667,19.018 C22.0213333,19.2266667 21.7206667,18.9513333 20.374,18.312 L18.312,20.374 C18.9633333,21.744 19.22,22.036 19.018,22.5233333 C18.8166667,23.008 18.4306667,23.0326667 17,23.542 L17,26.4586667 C18.426,26.9653333 18.8166667,26.992 19.018,27.4773333 C19.2206667,27.9666667 18.964,28.2553333 18.312,29.626 L20.374,31.688 C21.7066667,31.0546667 22.0206667,30.7726667 22.5226667,30.982 C23.008,31.1833333 23.032,31.5686667 23.542,33 L26.458,33 C26.9633333,31.5793333 26.9906667,31.1846667 27.4826667,30.9793333 C27.9793333,30.774 28.2733333,31.0453333 29.626,31.6873333 L31.688,29.6253333 C31.038,28.2586667 30.78,27.964 30.982,27.4766667 C31.182,26.9926667 31.5686667,26.968 33,26.458 L33,23.542 Z M29.75,26.9673333 C29.3653333,27.8966667 29.7046667,28.606 30.0753333,29.3526667 L29.3526667,30.0753333 C28.624,29.7133333 27.912,29.358 26.9706667,29.7486667 C26.04,30.136 25.7773333,30.8773333 25.512,31.6666667 L24.4893333,31.6666667 C24.224,30.8766667 23.962,30.1353333 23.034,29.75 C22.088,29.358 21.3626667,29.72 20.648,30.0753333 L19.926,29.3526667 C20.2973333,28.6073333 20.6366667,27.8993333 20.2506667,26.966 C19.8646667,26.0386667 19.1233333,25.7766667 18.3333333,25.5113333 L18.3333333,24.4893333 C19.1233333,24.224 19.8646667,23.962 20.25,23.0333333 C20.6353333,22.104 20.2953333,21.394 19.9246667,20.6473333 L20.6473333,19.9246667 C21.3686667,20.2833333 22.0886667,20.6426667 23.034,20.25 C23.962,19.8653333 24.224,19.1233333 24.4893333,18.3333333 L25.512,18.3333333 C25.7773333,19.1233333 26.04,19.8646667 26.968,20.25 C27.914,20.642 28.6386667,20.28 29.354,19.9246667 L30.0766667,20.6473333 C29.706,21.3946667 29.3666667,22.1053333 29.7513333,23.034 C30.136,23.9613333 30.8773333,24.2233333 31.668,24.4893333 L31.668,25.512 C30.876,25.7773333 30.1333333,26.0393333 29.75,26.9673333 Z M25,23 C26.1026667,23 27,23.8973333 27,25 C27,26.1026667 26.1026667,27 25,27 C23.8973333,27 23,26.1026667 23,25 C23,23.8973333 23.8973333,23 25,23 Z M25,21.6666667 C23.1586667,21.6666667 21.6666667,23.1586667 21.6666667,25 C21.6666667,26.8413333 23.1586667,28.3333333 25,28.3333333 C26.8413333,28.3333333 28.3333333,26.8413333 28.3333333,25 C28.3333333,23.1586667 26.8413333,21.6666667 25,21.6666667 Z" fill="#FFB7F0" fill-rule="nonzero"></path>
  </g>
</svg>
