<svg xmlns="http://www.w3.org/2000/svg" width="1312" height="625"><g fill-rule="evenodd" fill="#FFF"><path d="M299.5 93.5h-7v7h-2v-7h-7v-2h7.001l-.001-7h2l.001 7h6.999v2zm0 51h-7v7h-2v-7h-7v-2h7.001l-.001-7h2l.001 7h6.999v2zm607 72H894V229h-4v-12.5h-12.5v-4H890V200h4v12.5h12.5v4zm-589 11h-7v7h-2v-7h-7v-2h7.001l-.001-7h2l.001 7h6.999v2zm-12 64h-7v7h-2v-7h-7v-2h7.001l-.001-7h2l.001 7h6.999v2zm-6 57h-7v7h-2v-7h-7v-2h7.001l-.001-7h2l.001 7h6.999v2zM203 362h-7v7h-2v-7h-7v-2h7.001l-.001-7h2l.001 7H203v2zm96.5 88.5h-7v7h-2v-7h-7v-2h7.001l-.001-7h2l.001 7h6.999v2zM269 508h-7v7h-2v-7h-7v-2h7.001l-.001-7h2l.001 7H269v2zm565-241h-5v5h-2v-5h-5v-2h5.001l-.001-5h2l.001 5H834v2zm0 38h-4.999l-.001 5h-1l.001-5H822v-2h6.001l-.001-5h1l.001 5H834v2zm-75.5-109.5h-7v7h-2v-7h-7v-2h7.001l-.001-7h2l.001 7h6.999v2zm.5-39.5h-7v7h-2v-7h-7v-2h7.001l-.001-7h2l.001 7H759v2zm-16.5 133H738v4.5h-1V289h-4.5v-1h4.5v-5.5h1v5.5h4.5v1zm-19 59.5H719v4.5h-1v-4.5h-4.5v-1h4.5V342h1v5.5h4.5v1zm109 178.5H828v4.5h-1V527h-4.5v-1h4.5v-5.5h1v5.5h4.5v1zM169 275h-7v7h-2v-7h-7v-2h7.001l-.001-7h2l.001 7H169v2zm137 317h-7v7h-2v-7h-7v-2h7.001l-.001-7h2l.001 7H306v2zM422.5 55h-7v7h-2v-7h-7v-2h7.001l-.001-7h2l.001 7h6.999v2zm-72 89.5h-7v7h-2v-7h-7v-2h7.001l-.001-7h2l.001 7h6.999v2zm637 67H975V224h-4v-12.5h-12.5v-4H971V195h4v12.5h12.5v4zm-629 16h-7v7h-2v-7h-7v-2h7.001l-.001-7h2l.001 7h6.999v2zm1 56h-7v7h-2v-7h-7v-2h7.001l-.001-7h2l.001 7h6.999v2zm-9 65h-7v7h-2v-7h-7v-2h7.001l-.001-7h2l.001 7h6.999v2zm72 12.5h-7v7h-2v-7h-7v-2h7.001l-.001-7h2l.001 7h6.999v2zm-72 89.5h-7v7h-2v-7h-7v-2h7.001l-.001-7h2l.001 7h6.999v2zm0 48h-7v7h-2v-7h-7v-2h7.001l-.001-7h2l.001 7h6.999v2zM872 267h-5v5h-2v-5h-5v-2h5.001l-.001-5h2l.001 5H872v2zm0 38h-4.999l-.001 5h-1l.001-5H860v-2h6.001l-.001-5h1l.001 5H872v2zm-141-56h-7v7h-2v-7h-7v-2h7.001l-.001-7h2l.001 7H731v2zm0 51h-7v7h-2v-7h-7v-2h7.001l-.001-7h2l.001 7H731v2zm25.5 15.5H752v4.5h-1v-4.5h-4.5v-1h4.5V309h1v5.5h4.5v1zm-567-21.5h-7v7h-2v-7h-7v-2h7.001l-.001-7h2l.001 7h6.999v2zm567 87.5H752v4.5h-1v-4.5h-4.5v-1h4.5V375h1v5.5h4.5v1zM220 275h-7v7h-2v-7h-7v-2h7.001l-.001-7h2l.001 7H220v2zm577 266h-7v7h-2v-7h-7v-2h7.001l-.001-7h2l.001 7H797v2zM595.5 322.5H591v4.5h-1v-4.5h-4.5v-1h4.5V316h1v5.5h4.5v1zm-211-178h-7v7h-2v-7h-7v-2h7.001l-.001-7h2l.001 7h6.999v2zm73-3.5h-7v7h-2v-7h-7v-2h7.001l-.001-7h2l.001 7h6.999v2zm-58 86.5h-7v7h-2v-7h-7v-2h7.001l-.001-7h2l.001 7h6.999v2zm12 56h-7v7h-2v-7h-7v-2h7.001l-.001-7h2l.001 7h6.999v2zm-10 65h-7v7h-2v-7h-7v-2h7.001l-.001-7h2l.001 7h6.999v2zm-203 99.5H186v12.5h-4V448h-12.5v-4h12.501L182 431.5h4l.001 12.5H198.5v4zm203 2.5h-7v7h-2v-7h-7v-2h7.001l-.001-7h2l.001 7h6.999v2zM396 508h-7v7h-2v-7h-7v-2h7.001l-.001-7h2l.001 7H396v2zm514-241h-5v5h-2v-5h-5v-2h5.001l-.001-5h2l.001 5H910v2zm0 38h-4.999l-.001 5h-1l.001-5H898v-2h6.001l-.001-5h1l.001 5H910v2zm-128-56h-7v7h-2v-7h-7v-2h7.001l-.001-7h2l.001 7H782v2zm0 51h-7v7h-2v-7h-7v-2h7.001l-.001-7h2l.001 7H782v2zm78.5-2.5h-7v7h-2v-7h-7v-2h7.001l-.001-7h2l.001 7h6.999v2zm72 12.5h-7v7h-2v-7h-7v-2h7.001l-.001-7h2l.001 7h6.999v2zm-72 89.5h-7v7h-2v-7h-7v-2h7.001l-.001-7h2l.001 7h6.999v2zM271 275h-7v7h-2v-7h-7v-2h7.001l-.001-7h2l.001 7H271v2zm661.5 185h-7v7h-2v-7h-7v-2h7.001l-.001-7h2l.001 7h6.999v2zm-512-358.5h-7v7h-2v-7h-7v-2h7.001l-.001-7h2l.001 7h6.999v2zm6 43h-7v7h-2v-7h-7v-2h7.001l-.001-7h2l.001 7h6.999v2zm1 48h-7v7h-2v-7h-7v-2h7.001l-.001-7h2l.001 7h6.999v2zm97 15.5h-7v7h-2v-7h-7v-2h7.001l-.001-7h2l.001 7h6.999v2zm-72 89.5h-7v7h-2v-7h-7v-2h7.001l-.001-7h2l.001 7h6.999v2zM476 324h-7v7h-2v-7h-7v-2h7.001l-.001-7h2l.001 7H476v2zm-23.5 75.5h-7v7h-2v-7h-7v-2h7.001l-.001-7h2l.001 7h6.999v2zM547 584h-7v7h-2v-7h-7v-2h7.001l-.001-7h2l.001 7H547v2zm-96-12h-7v7h-2v-7h-7v-2h7.001l-.001-7h2l.001 7H451v2zm497-305h-5v5h-2v-5h-5v-2h5.001l-.001-5h2l.001 5H948v2zm117.5-250.5H1053V29h-4V16.5h-12.5v-4h12.5V0h4v12.5h12.5v4zM849 212h-7v7h-2v-7h-7v-2h7.001l-.001-7h2l.001 7H849v2z"/><path d="M829 297h-7v7h-2v-7h-7v-2h7.001l-.001-7h2l.001 7H829v2zm82.5.5h-7v7h-2v-7h-7v-2h7.001l-.001-7h2l.001 7h6.999v2zm0 51h-7v7h-2v-7h-7v-2h7.001l-.001-7h2l.001 7h6.999v2zM955 550h-7v7h-2v-7h-7v-2h7.001l-.001-7h2l.001 7H955v2zm-43.5-99.5h-7v7h-2v-7h-7v-2h7.001l-.001-7h2l.001 7h6.999v2zM797 358h-7v7h-2v-7h-7v-2h7.001l-.001-7h2l.001 7H797v2zM466.5 96.5h-7v7h-2v-7h-7v-2h7.001l-.001-7h2l.001 7h6.999v2zm17 48h-7v7h-2v-7h-7v-2h7.001l-.001-7h2l.001 7h6.999v2zm-5 48h-7v7h-2v-7h-7v-2h7.001l-.001-7h2l.001 7h6.999v2zm25 54h-7v7h-2v-7h-7v-2h7.001l-.001-7h2l.001 7h6.999v2zm0 51h-7v7h-2v-7h-7v-2h7.001l-.001-7h2l.001 7h6.999v2zm0 51h-7v7h-2v-7h-7v-2h7.001l-.001-7h2l.001 7h6.999v2zm0 51h-7v7h-2v-7h-7v-2h7.001l-.001-7h2l.001 7h6.999v2zm0 51h-7v7h-2v-7h-7v-2h7.001l-.001-7h2l.001 7h6.999v2zm0 48h-7v7h-2v-7h-7v-2h7.001l-.001-7h2l.001 7h6.999v2zm475-402h-7v7h-2v-7h-7v-2h7.001l-.001-7h2l.001 7h6.999v2zm-10 48h-7v7h-2v-7h-7v-2h7.001l-.001-7h2l.001 7h6.999v2zM884 249h-7v7h-2v-7h-7v-2h7.001l-.001-7h2l.001 7H884v2zm0 51h-7v7h-2v-7h-7v-2h7.001l-.001-7h2l.001 7H884v2zm78.5-2.5h-7v7h-2v-7h-7v-2h7.001l-.001-7h2l.001 7h6.999v2zm0 51h-7v7h-2v-7h-7v-2h7.001l-.001-7h2l.001 7h6.999v2zm0 51h-7v7h-2v-7h-7v-2h7.001l-.001-7h2l.001 7h6.999v2zm0 51h-7v7h-2v-7h-7v-2h7.001l-.001-7h2l.001 7h6.999v2zm0 48h-7v7h-2v-7h-7v-2h7.001l-.001-7h2l.001 7h6.999v2zm-426-405h-7v7h-2v-7h-7v-2h7.001l-.001-7h2l.001 7h6.999v2zm8 51h-7v7h-2v-7h-7v-2h7.001l-.001-7h2l.001 7h6.999v2zm0 51h-7v7h-2v-7h-7v-2h7.001l-.001-7h2l.001 7h6.999v2zM643 321h-7v7h-2v-7h-7v-2h7.001l-.001-7h2l.001 7H643v2zm-290-43h-13v13h-4v-13h-13v-4h13v-13h4v13h13v4zm198.5 33H547v4.5h-1V311h-4.5v-1h4.5v-5.5h1v5.5h4.5v1zm38 93H585v4.5h-1V404h-4.5v-1h4.5v-5.5h1v5.5h4.5v1zm-35 46.5h-7v7h-2v-7h-7v-2h7.001l-.001-7h2l.001 7h6.999v2zm0 48h-7v7h-2v-7h-7v-2h7.001l-.001-7h2l.001 7h6.999v2zm484-397h-7v7h-2v-7h-7v-2h7.001l-.001-7h2l.001 7h6.999v2zm193 32H1213V152h-5v-18.5h-18.5v-5h18.5V110h5v18.5h18.5v5zm-199 67h-7v7h-2v-7h-7v-2h7.001l-.001-7h2l.001 7h6.999v2zm-19 46h-7v7h-2v-7h-7v-2h7.001l-.001-7h2l.001 7h6.999v2zM1188 278h-13v13h-4v-13h-13v-4h13v-13h4v13h13v4zm123.5 110.5H1293V407h-5v-18.5h-18.5v-5h18.5V365h5v18.5h18.5v5zm-298 11h-7v7h-2v-7h-7v-2h7.001l-.001-7h2l.001 7h6.999v2zm0 51h-7v7h-2v-7h-7v-2h7.001l-.001-7h2l.001 7h6.999v2zm0 48h-7v7h-2v-7h-7v-2h7.001l-.001-7h2l.001 7h6.999v2zM720 267h-5v5h-2v-5h-5v-2h5.001l-.001-5h2l.001 5H720v2zM502.5 16.5H490V29h-4V16.5h-12.5v-4H486V0h4v12.5h12.5v4zm256 335H740V370h-5v-18.5h-18.5v-5H735V328h5v18.5h18.5v5zm-153-105h-7v7h-2v-7h-7v-2h7.001l-.001-7h2l.001 7h6.999v2zm4-48.5H605v4.5h-1V198h-4.5v-1h4.5v-5.5h1v5.5h4.5v1zm14 150.5H619v4.5h-1v-4.5h-4.5v-1h4.5V342h1v5.5h4.5v1zm0 33H619v4.5h-1v-4.5h-4.5v-1h4.5V375h1v5.5h4.5v1zM16 275H9v7H7v-7H0v-2h7.001L7 266h2l.001 7H16v2zm567.5-1.5H565V292h-5v-18.5h-18.5v-5H560V250h5v18.5h18.5v5zm509-169h-7v7h-2v-7h-7v-2h7.001l-.001-7h2l.001 7h6.999v2zm-7 40h-7v7h-2v-7h-7v-2h7.001l-.001-7h2l.001 7h6.999v2zm-7 45h-7v7h-2v-7h-7v-2h7.001l-.001-7h2l.001 7h6.999v2zm-9 45h-7v7h-2v-7h-7v-2h7.001l-.001-7h2l.001 7h6.999v2zM1281 278h-13v13h-4v-13h-13v-4h13v-13h4v13h13v4zm-216.5 70.5h-7v7h-2v-7h-7v-2h7.001l-.001-7h2l.001 7h6.999v2zm-929-59H117V308h-5v-18.5H93.5v-5H112V266h5v18.5h18.5v5zm929 161h-7v7h-2v-7h-7v-2h7.001l-.001-7h2l.001 7h6.999v2zm0 48h-7v7h-2v-7h-7v-2h7.001l-.001-7h2l.001 7h6.999v2zM758 267h-5v5h-2v-5h-5v-2h5.001l-.001-5h2l.001 5H758v2zm0 38h-4.999l-.001 5h-1l.001-5H746v-2h6.001l-.001-5h1l.001 5H758v2zm-46.5-201.5H693V122h-5v-18.5h-18.5v-5H688V80h5v18.5h18.5v5zM651 180h-7v7h-2v-7h-7v-2h7.001l-.001-7h2l.001 7H651v2zm-.5 107H646v4.5h-1V287h-4.5v-1h4.5v-5.5h1v5.5h4.5v1zm-71 75.5H571v7.5h-3v-7.5h-8.5v-3h8.5V351h3v8.5h8.5v3zM454.5 464H450v4.5h-1V464h-4.5v-1h4.5v-5.5h1v5.5h4.5v1zM67 275h-7v7h-2v-7h-7v-2h7.001L58 266h2l.001 7H67v2zm589.5 223.5h-7v7h-2v-7h-7v-2h7.001l-.001-7h2l.001 7h6.999v2zm475-405h-7v7h-2v-7h-7v-2h7.001l-.001-7h2l.001 7h6.999v2zm-2 51h-7v7h-2v-7h-7v-2h7.001l-.001-7h2l.001 7h6.999v2zm0 37h-7v7h-2v-7h-7v-2h7.001l-.001-7h2l.001 7h6.999v2zm-14 46h-7v7h-2v-7h-7v-2h7.001l-.001-7h2l.001 7h6.999v2zm0 70h-7v7h-2v-7h-7v-2h7.001l-.001-7h2l.001 7h6.999v2zm0 51h-7v7h-2v-7h-7v-2h7.001l-.001-7h2l.001 7h6.999v2zm0 51h-7v7h-2v-7h-7v-2h7.001l-.001-7h2l.001 7h6.999v2zm-982-51H121V361h-4v-12.5h-12.5v-4h12.501L117 332h4l.001 12.5H133.5v4zm982 150h-7v7h-2v-7h-7v-2h7.001l-.001-7h2l.001 7h6.999v2zM796 267h-5v5h-2v-5h-5v-2h5.001l-.001-5h2l.001 5H796v2zm0 38h-4.999l-.001 5h-1l.001-5H784v-2h6.001l-.001-5h1l.001 5H796v2zm-88.5-109.5h-7v7h-2v-7h-7v-2h7.001l-.001-7h2l.001 7h6.999v2zm0 51h-7v7h-2v-7h-7v-2h7.001l-.001-7h2l.001 7h6.999v2zm-17 69H686v4.5h-1v-4.5h-4.5v-1h4.5V309h1v5.5h4.5v1zm68 196.5H754v4.5h-1V512h-4.5v-1h4.5v-5.5h1v5.5h4.5v1zm-68-130.5H686v4.5h-1v-4.5h-4.5v-1h4.5V375h1v5.5h4.5v1z"/><path d="M118 275h-7v7h-2v-7h-7v-2h7.001l-.001-7h2l.001 7H118v2zm472 343h-7v7h-2v-7h-7v-2h7.001l-.001-7h2l.001 7H590v2zm576.5-524.5h-7v7h-2v-7h-7v-2h7.001l-.001-7h2l.001 7h6.999v2zM1245 277h-7v7h-2v-7h-7v-2h7.001l-.001-7h2l.001 7H1245v2zm0 51h-7v7h-2v-7h-7v-2h7.001l-.001-7h2l.001 7H1245v2zm-78.5-81.5h-7v7h-2v-7h-7v-2h7.001l-.001-7h2l.001 7h6.999v2zm-939-180H215V79h-4V66.5h-12.5v-4h12.501L211 50h4l.001 12.5H227.5v4zm939 282h-7v7h-2v-7h-7v-2h7.001l-.001-7h2l.001 7h6.999v2zm0 51h-7v7h-2v-7h-7v-2h7.001l-.001-7h2l.001 7h6.999v2zm0 51h-7v7h-2v-7h-7v-2h7.001l-.001-7h2l.001 7h6.999v2zm0 48h-7v7h-2v-7h-7v-2h7.001l-.001-7h2l.001 7h6.999v2zM1296 277h-7v7h-2v-7h-7v-2h7.001l-.001-7h2l.001 7H1296v2zm0 51h-7v7h-2v-7h-7v-2h7.001l-.001-7h2l.001 7H1296v2zm-78.5-81.5h-7v7h-2v-7h-7v-2h7.001l-.001-7h2l.001 7h6.999v2zm0 51h-7v7h-2v-7h-7v-2h7.001l-.001-7h2l.001 7h6.999v2zm0 51h-7v7h-2v-7h-7v-2h7.001l-.001-7h2l.001 7h6.999v2zm0 51h-7v7h-2v-7h-7v-2h7.001l-.001-7h2l.001 7h6.999v2zM1041 293h-7v7h-2v-7h-7v-2h7.001l-.001-7h2l.001 7H1041v2zm0 48h-7v7h-2v-7h-7v-2h7.001l-.001-7h2l.001 7H1041v2z"/></g></svg>